<?xml version="1.0" encoding="UTF-8"?>
<svg width="138px" height="60px" viewBox="0 0 138 60" version="1.1" xmlns="http://www.w3.org/2000/svg" xmlns:xlink="http://www.w3.org/1999/xlink">
    <!-- Generator: Sketch 59.1 (86144) - https://sketch.com -->
    <title>logo_light</title>
    <desc>Created with Sketch.</desc>
    <g id="logo_light" stroke="none" stroke-width="1" fill="none" fill-rule="evenodd">
        <g id="migo-logo-final-01" fill-rule="nonzero">
            <rect id="Rectangle" fill="#FFFFFF" x="54.6" y="17.1461538" width="9.99692308" height="28.3384615"></rect>
            <path d="M91.3061538,20.1276923 C89.1797311,17.692283 86.0880444,16.3178247 82.8553846,16.3707692 C78.9629755,16.3306863 75.2373268,17.9484905 72.6092308,20.82 C71.3138421,22.2396676 70.2934545,23.8876248 69.6,25.68 C68.8492866,27.6065058 68.473324,29.6586349 68.4923077,31.7261538 C68.466114,33.7162239 68.8136692,35.693531 69.5169231,37.5553846 C70.7890836,40.9415733 73.4249792,43.6377562 76.7815385,44.9861538 C78.553037,45.6985698 80.4476528,46.0545944 82.3569231,46.0338462 C83.2085043,46.0392917 84.0590828,45.9744563 84.9,45.84 C85.6593118,45.7149521 86.4013149,45.5011809 87.1107692,45.2030769 C87.8363287,44.8967629 88.5290783,44.5179154 89.1784615,44.0723077 C89.935201,43.5529593 90.6469383,42.9709095 91.3061538,42.3323077 L91.3061538,45.0415385 C91.3061538,47.1369231 90.7446154,48.7753846 89.6215385,49.9569231 C88.4984615,51.1384615 86.8876923,51.7276923 84.7892308,51.7246154 C82.3276923,51.7246154 80.7446154,50.7846154 80.04,48.9046154 L68.7692308,48.9046154 C69.0595521,50.4381128 69.6611675,51.8958127 70.5369231,53.1876923 C71.4535194,54.5246793 72.6043451,55.6848867 73.9338462,56.6123077 C75.4106583,57.6382052 77.0442103,58.4175717 78.7707692,58.92 C82.5313965,59.9637346 86.497729,60.0193746 90.2861538,59.0815385 C91.8616379,58.6821358 93.375503,58.070379 94.7861538,57.2630769 C96.05623,56.5363788 97.2028218,55.6125624 98.1830769,54.5261538 C99.0860736,53.5378025 99.7897236,52.3843806 100.255385,51.1292308 C100.616379,50.0511435 100.875966,48.9417171 101.030769,47.8153846 C101.223902,46.4052878 101.316444,44.9832346 101.307692,43.56 L101.307692,17.16 L91.3061538,17.16 L91.3061538,20.1276923 Z M91.2784615,33.7430769 C90.9443962,34.5109984 90.4754492,35.2128558 89.8938462,35.8153846 C89.3145618,36.41236 88.6185765,36.8836819 87.8492308,37.2 C87.05429,37.5331304 86.2003717,37.7026583 85.3384615,37.6984615 C84.4567894,37.706307 83.5825403,37.5367937 82.7676923,37.2 C81.998969,36.8825235 81.3032059,36.4113521 80.7230769,35.8153846 C80.147239,35.2148175 79.6886096,34.5120032 79.3707692,33.7430769 C79.0339777,32.9298442 78.8644522,32.0571016 78.8723077,31.1769231 C78.8665093,30.319479 79.0459863,29.470899 79.3984615,28.6892308 C79.7297967,27.9362439 80.1994589,27.2521026 80.7830769,26.6723077 C81.3808342,26.0977534 82.0723093,25.6294858 82.8276923,25.2876923 C83.6093605,24.9352171 84.4579405,24.7557401 85.3153846,24.7615385 C86.1590272,24.7609974 86.9941218,24.9305279 87.7707692,25.26 C88.5448476,25.5826828 89.2487077,26.0529679 89.8430769,26.6446154 C90.424675,27.2366397 90.8938367,27.9294351 91.2276923,28.6892308 C91.9357885,30.307468 91.9357885,32.1479166 91.2276923,33.7661538 L91.2784615,33.7430769 Z" id="Shape" fill="#FFFFFF"></path>
            <path d="M136.98,25.1815385 C136.149968,23.3433862 134.934884,21.7049109 133.416923,20.3769231 C131.826833,18.9958433 129.989957,17.9278557 128.003077,17.2292308 C125.831857,16.4564063 123.541479,16.0720728 121.236923,16.0938462 C118.911722,16.0692528 116.601066,16.4632213 114.415385,17.2569231 C112.43679,17.9683219 110.609645,19.0455073 109.029231,20.4323077 C107.536114,21.7548682 106.332474,23.3717682 105.493846,25.1815385 C104.644317,27.0262543 104.211,29.0352695 104.224615,31.0661538 C104.196162,33.2398514 104.628744,35.3948966 105.493846,37.3892308 C106.31187,39.2438571 107.50635,40.9082695 109.001538,42.2769231 C110.548468,43.674284 112.361621,44.7449078 114.332308,45.4246154 C116.497588,46.1804169 118.777486,46.5551947 121.070769,46.5323077 C123.409156,46.5537331 125.734302,46.1792129 127.947692,45.4246154 C129.949745,44.757182 131.798243,43.696414 133.384615,42.3046154 C134.891699,40.9666306 136.104936,39.3306463 136.947692,37.5 C137.82953,35.5670704 138.272438,33.4628626 138.244615,31.3384615 C138.273367,29.2188425 137.841904,27.1182192 136.98,25.1815385 L136.98,25.1815385 Z M127.176923,33.7984615 C126.841127,34.5654367 126.372374,35.2670033 125.792308,35.8707692 C125.212179,36.4667367 124.516416,36.9379081 123.747692,37.2553846 C122.138179,37.9197953 120.331051,37.9197953 118.721538,37.2553846 C117.952193,36.9390665 117.256207,36.4677446 116.676923,35.8707692 C116.09532,35.2682404 115.626373,34.566383 115.292308,33.7984615 C114.934081,32.9714766 114.754775,32.0780893 114.766154,31.1769231 C114.760355,30.319479 114.939832,29.470899 115.292308,28.6892308 C115.631264,27.9322643 116.099846,27.2403263 116.676923,26.6446154 C117.257469,26.0491462 117.953123,25.5780487 118.721538,25.26 C120.331051,24.5955893 122.138179,24.5955893 123.747692,25.26 C124.515498,25.5791795 125.210938,26.0501317 125.792308,26.6446154 C126.371396,27.2491669 126.840027,27.9505506 127.176923,28.7169231 C127.527684,29.5089133 127.706991,30.3661286 127.703077,31.2323077 C127.710675,32.1152308 127.531363,32.9897693 127.176923,33.7984615 L127.176923,33.7984615 Z" id="Shape" fill="#FFFFFF"></path>
            <path d="M34.8323077,15.8953846 C31.4418905,15.8435208 28.1368788,16.9598586 25.4723077,19.0569231 C25.0647238,19.372531 24.4952762,19.372531 24.0876923,19.0569231 C21.4231212,16.9598586 18.1181095,15.8435208 14.7276923,15.8953846 C6.56769231,16.0153846 0.106153846,22.8738462 0.106153846,31.0338462 L0.106153846,45.48 L10.1030769,45.48 L10.1030769,30.8769231 C10.0747644,28.3462676 11.964134,26.2037863 14.4784615,25.9153846 C15.8375908,25.7840395 17.1890637,26.2321654 18.2004561,27.1495362 C19.2118486,28.0669069 19.7892984,29.3683859 19.7907692,30.7338462 L19.7907692,45.48 L29.7876923,45.48 L29.7876923,30.8769231 C29.7567295,28.3486225 31.6421271,26.2061251 34.1538462,25.9153846 C35.5125485,25.7839552 36.8636011,26.2321975 37.874288,27.1497255 C38.884975,28.0672534 39.4613739,29.368802 39.4615385,30.7338462 L39.4615385,45.48 L49.4584615,45.48 L49.4584615,31.0338462 C49.4538462,22.8738462 42.9923077,16.0153846 34.8323077,15.8953846 Z" id="Path" fill="#0000FF"></path>
            <path d="M11.0123077,0.143076923 L19.32,4.93846154 C19.4646048,5.02041287 19.5539761,5.17378756 19.5539761,5.34 C19.5539761,5.50621244 19.4646048,5.65958713 19.32,5.74153846 L11.0123077,10.5369231 C10.8689512,10.6219305 10.6908998,10.6230466 10.5464888,10.539843 C10.4020779,10.4566393 10.3137422,10.302042 10.3153621,10.1353846 L10.3153621,0.544615385 C10.3137422,0.377958044 10.4020779,0.223360686 10.5464888,0.140157034 C10.6908998,0.0569533817 10.8689512,0.0580694598 11.0123077,0.143076923 Z" id="Path" fill="#0000FF"></path>
            <path d="M30.8492308,0.143076923 L39.1569194,4.93846154 C39.3015279,5.02041287 39.3908992,5.17378756 39.3908992,5.34 C39.3908992,5.50621244 39.3015279,5.65958713 39.1569194,5.74153846 L30.8492308,10.5369231 C30.7061462,10.6195347 30.5298167,10.6193605 30.3868957,10.5364663 C30.2439747,10.4535721 30.1562656,10.300604 30.1569194,10.1353846 L30.1569194,0.544615385 C30.1562656,0.379396017 30.2439747,0.226427883 30.3868957,0.143533682 C30.5298167,0.0606394801 30.7061462,0.0604652774 30.8492308,0.143076923 Z" id="Path" fill="#0000FF"></path>
        </g>
    </g>
</svg>